<mxfile host="app.diagrams.net" modified="2021-05-04T16:20:24.451Z" agent="5.0 (Macintosh; Intel Mac OS X 10_15_7) AppleWebKit/537.36 (KHTML, like Gecko) Chrome/90.0.4430.85 Safari/537.36" etag="-A3fhS4xh9aqKhxa5iwi" version="14.6.9" type="github">
  <diagram id="C5RBs43oDa-KdzZeNtuy" name="Page-1">
    <mxGraphModel dx="1351" dy="883" grid="1" gridSize="10" guides="1" tooltips="1" connect="1" arrows="1" fold="1" page="1" pageScale="1" pageWidth="827" pageHeight="1169" math="0" shadow="0">
      <root>
        <mxCell id="WIyWlLk6GJQsqaUBKTNV-0" />
        <mxCell id="WIyWlLk6GJQsqaUBKTNV-1" parent="WIyWlLk6GJQsqaUBKTNV-0" />
        <mxCell id="aga3cG7ZONXOVthqYWCL-10" value="" style="group" vertex="1" connectable="0" parent="WIyWlLk6GJQsqaUBKTNV-1">
          <mxGeometry x="60" y="80" width="310" height="420" as="geometry" />
        </mxCell>
        <mxCell id="WIyWlLk6GJQsqaUBKTNV-3" value="User Sign up" style="rounded=1;whiteSpace=wrap;html=1;fontSize=12;glass=0;strokeWidth=1;shadow=0;" parent="aga3cG7ZONXOVthqYWCL-10" vertex="1">
          <mxGeometry y="70" width="132.85714285714286" height="40" as="geometry" />
        </mxCell>
        <mxCell id="WIyWlLk6GJQsqaUBKTNV-4" value="No" style="rounded=0;html=1;jettySize=auto;orthogonalLoop=1;fontSize=11;endArrow=block;endFill=0;endSize=8;strokeWidth=1;shadow=0;labelBackgroundColor=none;edgeStyle=orthogonalEdgeStyle;" parent="aga3cG7ZONXOVthqYWCL-10" source="WIyWlLk6GJQsqaUBKTNV-6" edge="1">
          <mxGeometry y="20" relative="1" as="geometry">
            <mxPoint as="offset" />
            <mxPoint x="66.42857142857143" y="280" as="targetPoint" />
          </mxGeometry>
        </mxCell>
        <mxCell id="WIyWlLk6GJQsqaUBKTNV-6" value="is sign-up by referral?" style="rhombus;whiteSpace=wrap;html=1;shadow=0;fontFamily=Helvetica;fontSize=12;align=center;strokeWidth=1;spacing=6;spacingTop=-4;" parent="aga3cG7ZONXOVthqYWCL-10" vertex="1">
          <mxGeometry x="11.071428571428573" y="160" width="110.71428571428574" height="80" as="geometry" />
        </mxCell>
        <mxCell id="WIyWlLk6GJQsqaUBKTNV-2" value="" style="rounded=0;html=1;jettySize=auto;orthogonalLoop=1;fontSize=11;endArrow=block;endFill=0;endSize=8;strokeWidth=1;shadow=0;labelBackgroundColor=none;edgeStyle=orthogonalEdgeStyle;" parent="aga3cG7ZONXOVthqYWCL-10" source="WIyWlLk6GJQsqaUBKTNV-3" target="WIyWlLk6GJQsqaUBKTNV-6" edge="1">
          <mxGeometry relative="1" as="geometry" />
        </mxCell>
        <mxCell id="WIyWlLk6GJQsqaUBKTNV-7" value="send referrer and referred id to referral service" style="rounded=1;whiteSpace=wrap;html=1;fontSize=12;glass=0;strokeWidth=1;shadow=0;" parent="aga3cG7ZONXOVthqYWCL-10" vertex="1">
          <mxGeometry x="177.14285714285717" y="180" width="132.85714285714286" height="40" as="geometry" />
        </mxCell>
        <mxCell id="WIyWlLk6GJQsqaUBKTNV-5" value="Yes" style="edgeStyle=orthogonalEdgeStyle;rounded=0;html=1;jettySize=auto;orthogonalLoop=1;fontSize=11;endArrow=block;endFill=0;endSize=8;strokeWidth=1;shadow=0;labelBackgroundColor=none;" parent="aga3cG7ZONXOVthqYWCL-10" source="WIyWlLk6GJQsqaUBKTNV-6" target="WIyWlLk6GJQsqaUBKTNV-7" edge="1">
          <mxGeometry y="10" relative="1" as="geometry">
            <mxPoint as="offset" />
          </mxGeometry>
        </mxCell>
        <mxCell id="WIyWlLk6GJQsqaUBKTNV-12" value="Generate Membership/Referral number on UMS" style="rounded=1;whiteSpace=wrap;html=1;fontSize=12;glass=0;strokeWidth=1;shadow=0;" parent="aga3cG7ZONXOVthqYWCL-10" vertex="1">
          <mxGeometry y="280" width="132.85714285714286" height="40" as="geometry" />
        </mxCell>
        <mxCell id="aga3cG7ZONXOVthqYWCL-3" value="" style="edgeStyle=orthogonalEdgeStyle;rounded=0;orthogonalLoop=1;jettySize=auto;html=1;" edge="1" parent="aga3cG7ZONXOVthqYWCL-10" source="aga3cG7ZONXOVthqYWCL-2" target="WIyWlLk6GJQsqaUBKTNV-3">
          <mxGeometry relative="1" as="geometry" />
        </mxCell>
        <mxCell id="aga3cG7ZONXOVthqYWCL-2" value="Start" style="ellipse;whiteSpace=wrap;html=1;" vertex="1" parent="aga3cG7ZONXOVthqYWCL-10">
          <mxGeometry width="132.85714285714286" height="40" as="geometry" />
        </mxCell>
        <mxCell id="aga3cG7ZONXOVthqYWCL-4" value="Start" style="ellipse;whiteSpace=wrap;html=1;" vertex="1" parent="aga3cG7ZONXOVthqYWCL-10">
          <mxGeometry y="380" width="132.85714285714286" height="40" as="geometry" />
        </mxCell>
        <mxCell id="aga3cG7ZONXOVthqYWCL-7" value="" style="endArrow=classic;html=1;exitX=0.5;exitY=1;exitDx=0;exitDy=0;entryX=0.5;entryY=0;entryDx=0;entryDy=0;" edge="1" parent="aga3cG7ZONXOVthqYWCL-10" source="WIyWlLk6GJQsqaUBKTNV-12" target="aga3cG7ZONXOVthqYWCL-4">
          <mxGeometry width="50" height="50" relative="1" as="geometry">
            <mxPoint x="442.85714285714295" y="320" as="sourcePoint" />
            <mxPoint x="498.2142857142858" y="270" as="targetPoint" />
          </mxGeometry>
        </mxCell>
        <mxCell id="aga3cG7ZONXOVthqYWCL-8" value="" style="endArrow=classic;html=1;exitX=0.5;exitY=1;exitDx=0;exitDy=0;" edge="1" parent="aga3cG7ZONXOVthqYWCL-10">
          <mxGeometry width="50" height="50" relative="1" as="geometry">
            <mxPoint x="243.57142857142858" y="220" as="sourcePoint" />
            <mxPoint x="243.57142857142858" y="350" as="targetPoint" />
          </mxGeometry>
        </mxCell>
        <mxCell id="aga3cG7ZONXOVthqYWCL-9" value="" style="endArrow=classic;html=1;" edge="1" parent="aga3cG7ZONXOVthqYWCL-10">
          <mxGeometry width="50" height="50" relative="1" as="geometry">
            <mxPoint x="243.57142857142858" y="350" as="sourcePoint" />
            <mxPoint x="66.42857142857143" y="350" as="targetPoint" />
          </mxGeometry>
        </mxCell>
        <mxCell id="aga3cG7ZONXOVthqYWCL-11" value="&lt;b&gt;&lt;font style=&quot;font-size: 14px&quot;&gt;User Sign Up&lt;/font&gt;&lt;/b&gt;" style="text;html=1;align=center;verticalAlign=middle;resizable=0;points=[];autosize=1;strokeColor=none;" vertex="1" parent="WIyWlLk6GJQsqaUBKTNV-1">
          <mxGeometry x="70" y="40" width="100" height="20" as="geometry" />
        </mxCell>
        <mxCell id="aga3cG7ZONXOVthqYWCL-14" value="" style="edgeStyle=orthogonalEdgeStyle;rounded=0;orthogonalLoop=1;jettySize=auto;html=1;" edge="1" parent="WIyWlLk6GJQsqaUBKTNV-1" source="aga3cG7ZONXOVthqYWCL-12" target="aga3cG7ZONXOVthqYWCL-13">
          <mxGeometry relative="1" as="geometry" />
        </mxCell>
        <mxCell id="aga3cG7ZONXOVthqYWCL-12" value="start" style="ellipse;whiteSpace=wrap;html=1;" vertex="1" parent="WIyWlLk6GJQsqaUBKTNV-1">
          <mxGeometry x="470" y="190" width="120" height="40" as="geometry" />
        </mxCell>
        <mxCell id="aga3cG7ZONXOVthqYWCL-16" value="" style="edgeStyle=orthogonalEdgeStyle;rounded=0;orthogonalLoop=1;jettySize=auto;html=1;" edge="1" parent="WIyWlLk6GJQsqaUBKTNV-1" source="aga3cG7ZONXOVthqYWCL-13" target="aga3cG7ZONXOVthqYWCL-15">
          <mxGeometry relative="1" as="geometry" />
        </mxCell>
        <mxCell id="aga3cG7ZONXOVthqYWCL-13" value="user sign-in to the platform" style="whiteSpace=wrap;html=1;" vertex="1" parent="WIyWlLk6GJQsqaUBKTNV-1">
          <mxGeometry x="470" y="260" width="120" height="60" as="geometry" />
        </mxCell>
        <mxCell id="aga3cG7ZONXOVthqYWCL-18" value="" style="edgeStyle=orthogonalEdgeStyle;rounded=0;orthogonalLoop=1;jettySize=auto;html=1;" edge="1" parent="WIyWlLk6GJQsqaUBKTNV-1" source="aga3cG7ZONXOVthqYWCL-15" target="aga3cG7ZONXOVthqYWCL-17">
          <mxGeometry relative="1" as="geometry" />
        </mxCell>
        <mxCell id="aga3cG7ZONXOVthqYWCL-15" value="User initiates transaction" style="whiteSpace=wrap;html=1;" vertex="1" parent="WIyWlLk6GJQsqaUBKTNV-1">
          <mxGeometry x="470" y="380" width="120" height="60" as="geometry" />
        </mxCell>
        <mxCell id="aga3cG7ZONXOVthqYWCL-20" value="" style="edgeStyle=orthogonalEdgeStyle;rounded=0;orthogonalLoop=1;jettySize=auto;html=1;" edge="1" parent="WIyWlLk6GJQsqaUBKTNV-1" source="aga3cG7ZONXOVthqYWCL-17" target="aga3cG7ZONXOVthqYWCL-19">
          <mxGeometry relative="1" as="geometry" />
        </mxCell>
        <mxCell id="aga3cG7ZONXOVthqYWCL-22" value="" style="edgeStyle=orthogonalEdgeStyle;rounded=0;orthogonalLoop=1;jettySize=auto;html=1;" edge="1" parent="WIyWlLk6GJQsqaUBKTNV-1" source="aga3cG7ZONXOVthqYWCL-17" target="aga3cG7ZONXOVthqYWCL-21">
          <mxGeometry relative="1" as="geometry" />
        </mxCell>
        <mxCell id="aga3cG7ZONXOVthqYWCL-17" value="does user have unused bonus?" style="rhombus;whiteSpace=wrap;html=1;" vertex="1" parent="WIyWlLk6GJQsqaUBKTNV-1">
          <mxGeometry x="470" y="510" width="120" height="110" as="geometry" />
        </mxCell>
        <mxCell id="aga3cG7ZONXOVthqYWCL-19" value="remove transaction charge from the transaction" style="whiteSpace=wrap;html=1;" vertex="1" parent="WIyWlLk6GJQsqaUBKTNV-1">
          <mxGeometry x="680" y="650" width="120" height="60" as="geometry" />
        </mxCell>
        <mxCell id="aga3cG7ZONXOVthqYWCL-21" value="add transaction to the transaction" style="whiteSpace=wrap;html=1;" vertex="1" parent="WIyWlLk6GJQsqaUBKTNV-1">
          <mxGeometry x="240" y="650" width="120" height="60" as="geometry" />
        </mxCell>
        <mxCell id="aga3cG7ZONXOVthqYWCL-23" value="" style="endArrow=none;html=1;" edge="1" parent="WIyWlLk6GJQsqaUBKTNV-1">
          <mxGeometry width="50" height="50" relative="1" as="geometry">
            <mxPoint x="300" y="780" as="sourcePoint" />
            <mxPoint x="740" y="780" as="targetPoint" />
          </mxGeometry>
        </mxCell>
        <mxCell id="aga3cG7ZONXOVthqYWCL-24" value="" style="endArrow=classic;html=1;exitX=0.5;exitY=1;exitDx=0;exitDy=0;" edge="1" parent="WIyWlLk6GJQsqaUBKTNV-1" source="aga3cG7ZONXOVthqYWCL-21">
          <mxGeometry width="50" height="50" relative="1" as="geometry">
            <mxPoint x="440" y="730" as="sourcePoint" />
            <mxPoint x="300" y="780" as="targetPoint" />
          </mxGeometry>
        </mxCell>
        <mxCell id="aga3cG7ZONXOVthqYWCL-25" value="" style="endArrow=classic;html=1;exitX=0.5;exitY=1;exitDx=0;exitDy=0;" edge="1" parent="WIyWlLk6GJQsqaUBKTNV-1">
          <mxGeometry width="50" height="50" relative="1" as="geometry">
            <mxPoint x="739.2899999999997" y="710" as="sourcePoint" />
            <mxPoint x="739.2899999999997" y="780" as="targetPoint" />
          </mxGeometry>
        </mxCell>
        <mxCell id="aga3cG7ZONXOVthqYWCL-26" value="" style="endArrow=classic;html=1;exitX=0.5;exitY=1;exitDx=0;exitDy=0;" edge="1" parent="WIyWlLk6GJQsqaUBKTNV-1" target="aga3cG7ZONXOVthqYWCL-27">
          <mxGeometry width="50" height="50" relative="1" as="geometry">
            <mxPoint x="519.9999999999998" y="780" as="sourcePoint" />
            <mxPoint x="519.9999999999998" y="850" as="targetPoint" />
          </mxGeometry>
        </mxCell>
        <mxCell id="aga3cG7ZONXOVthqYWCL-29" value="" style="edgeStyle=orthogonalEdgeStyle;rounded=0;orthogonalLoop=1;jettySize=auto;html=1;" edge="1" parent="WIyWlLk6GJQsqaUBKTNV-1" source="aga3cG7ZONXOVthqYWCL-27" target="aga3cG7ZONXOVthqYWCL-28">
          <mxGeometry relative="1" as="geometry" />
        </mxCell>
        <mxCell id="aga3cG7ZONXOVthqYWCL-27" value="Perform transaction and populate records on the payment and referral services" style="rounded=0;whiteSpace=wrap;html=1;" vertex="1" parent="WIyWlLk6GJQsqaUBKTNV-1">
          <mxGeometry x="400" y="830" width="240" height="60" as="geometry" />
        </mxCell>
        <mxCell id="aga3cG7ZONXOVthqYWCL-28" value="stop" style="ellipse;whiteSpace=wrap;html=1;rounded=0;" vertex="1" parent="WIyWlLk6GJQsqaUBKTNV-1">
          <mxGeometry x="460" y="970" width="120" height="60" as="geometry" />
        </mxCell>
        <mxCell id="aga3cG7ZONXOVthqYWCL-30" value="Yes" style="text;html=1;align=center;verticalAlign=middle;resizable=0;points=[];autosize=1;strokeColor=none;" vertex="1" parent="WIyWlLk6GJQsqaUBKTNV-1">
          <mxGeometry x="610" y="530" width="40" height="20" as="geometry" />
        </mxCell>
        <mxCell id="aga3cG7ZONXOVthqYWCL-31" value="No" style="text;html=1;align=center;verticalAlign=middle;resizable=0;points=[];autosize=1;strokeColor=none;" vertex="1" parent="WIyWlLk6GJQsqaUBKTNV-1">
          <mxGeometry x="365" y="540" width="30" height="20" as="geometry" />
        </mxCell>
        <mxCell id="aga3cG7ZONXOVthqYWCL-32" value="&lt;b&gt;&lt;font style=&quot;font-size: 18px&quot;&gt;Transaction Bonus Process&lt;/font&gt;&lt;/b&gt;" style="text;html=1;align=center;verticalAlign=middle;resizable=0;points=[];autosize=1;strokeColor=none;" vertex="1" parent="WIyWlLk6GJQsqaUBKTNV-1">
          <mxGeometry x="415" y="140" width="250" height="20" as="geometry" />
        </mxCell>
      </root>
    </mxGraphModel>
  </diagram>
</mxfile>
